<?xml version="1.0" encoding="UTF-8" standalone="no"?>
<svg width="15px" height="18px" viewBox="0 0 15 18" version="1.1" xmlns="http://www.w3.org/2000/svg" xmlns:xlink="http://www.w3.org/1999/xlink" xmlns:sketch="http://www.bohemiancoding.com/sketch/ns">
	<title>Unhide</title>
	<g id="Page-1" stroke="none" stroke-width="1" fill="none" fill-rule="evenodd" sketch:type="MSPage">
		<path d="M2.7176827,2.86735452 C5.00648266,0.655279838 8.76181,0.402166512 11.3793306,2.14195695 C12.5265563,2.89935736 13.453379,4.05824787 13.8150659,5.42370212 C13.9987351,6.06278902 14.0043864,6.73387876 13.9987351,7.39430089 C13.9977931,10.5945843 13.9987351,13.7958375 13.9987351,16.9961209 C13.2960829,16.7148838 12.5953145,16.4268583 11.8926623,16.1465911 C11.7683325,16.0893739 11.6421188,16.1815034 11.5243822,16.2135061 C10.8575219,16.4840755 10.1793589,16.7265213 9.5143825,17 C8.84092902,16.727491 8.17030121,16.4491634 7.4996734,16.1718055 C6.87331456,16.4423749 6.24695573,16.7119746 5.62059689,16.9815742 C4.87932711,16.6886997 4.13617354,16.3997044 3.39678754,16.1000415 C2.59712039,16.3958254 1.80027892,16.6993673 1.00061178,16.9951512 C1.00343746,13.5698781 0.99496042,10.1446051 1.00532124,6.71933201 C1.0109726,5.25786926 1.6834842,3.85071434 2.7176827,2.86735452 L2.7176827,2.86735452 L2.7176827,2.86735452 Z M4.05803554,6.07178152 C3.4138134,6.23768823 2.86391367,6.99845779 3.02992114,7.78214866 C3.22139565,8.75357606 4.24007782,9.20872801 5.00880557,8.90856785 C5.62567421,8.71209939 6.13029917,7.9687937 5.96995106,7.21129861 C5.77941976,6.27698192 4.81355815,5.81091506 4.05803554,6.07178152 L4.05803554,6.07178152 L4.05803554,6.07178152 Z M10.0837922,6.06199013 C9.44035488,6.22240852 8.87711138,6.96011483 9.02334713,7.74911138 C9.18656509,8.68870478 10.1394561,9.17759892 10.8979951,8.94079082 C11.5536973,8.79565038 12.1244885,8.03939228 11.9763658,7.24275676 C11.8074871,6.29770695 10.8423311,5.82081691 10.0837922,6.06199013 L10.0837922,6.06199013 L10.0837922,6.06199013 Z" id="Shape" stroke="#878787" sketch:type="MSShapeGroup"></path>
	</g>
</svg>
